<svg preserveAspectRatio="none" width="100%" height="100%" overflow="visible" style="display: block;" viewBox="0 0 19.99 19.99" fill="none" xmlns="http://www.w3.org/2000/svg">
<g id="SVG">
<path id="Vector" d="M16.727 8.34945C17.0818 7.99147 17.0792 7.41366 16.7213 7.05887C16.3633 6.70408 15.7855 6.70666 15.4308 7.06463L13.3046 9.20978C12.4418 10.0804 11.848 10.6776 11.3447 11.0817C10.856 11.4742 10.542 11.6089 10.2609 11.6447C10.0843 11.6672 9.90567 11.6672 9.72913 11.6447C9.44795 11.6089 9.13399 11.4742 8.64522 11.0817C8.14205 10.6776 7.54821 10.0804 6.68535 9.20978L4.55925 7.06463C4.20446 6.70666 3.62664 6.70408 3.26867 7.05887C2.9107 7.41366 2.90812 7.99148 3.26291 8.34945L5.42731 10.5332C6.24248 11.3557 6.90873 12.028 7.50237 12.5047C8.11967 13.0005 8.74624 13.3593 9.49835 13.4553C9.82813 13.4972 10.1618 13.4972 10.4916 13.4553C11.2438 13.3593 11.8704 13.0005 12.4876 12.5047C13.0813 12.028 13.7475 11.3557 14.5627 10.5332L16.727 8.34945Z" fill="var(--fill-0, white)"/>
</g>
</svg>
