<svg preserveAspectRatio="none" width="100%" height="100%" overflow="visible" style="display: block;" viewBox="0 0 24 24" fill="none" xmlns="http://www.w3.org/2000/svg">
<g id="SVG">
<path id="Vector" fill-rule="evenodd" clip-rule="evenodd" d="M21.3904 3.86353C22.4184 4.14901 23.2289 4.98509 23.5057 6.04549C24.0197 7.98275 23.9999 12.0204 23.9999 12.0204C23.9999 12.0204 23.9999 16.0376 23.5057 17.9749C23.2289 19.0353 22.4184 19.8713 21.3904 20.1568C19.5123 20.6667 11.9999 20.6667 11.9999 20.6667C11.9999 20.6667 4.5074 20.6667 2.60955 20.1365C1.58155 19.8509 0.771001 19.0149 0.494232 17.9545C0 16.0376 0 12 0 12C0 12 0 7.98275 0.494232 6.04549C0.771001 4.98509 1.60131 4.12863 2.60955 3.84313C4.48763 3.33333 11.9999 3.33333 11.9999 3.33333C11.9999 3.33333 19.5123 3.33333 21.3904 3.86353ZM15.8547 11.9998L9.60753 15.7112V8.2884L15.8547 11.9998Z" fill="var(--fill-0, #E5E5F5)"/>
</g>
</svg>
