<svg preserveAspectRatio="none" width="100%" height="100%" overflow="visible" style="display: block;" viewBox="0 0 31.99 31.99" fill="none" xmlns="http://www.w3.org/2000/svg">
<g id="es.svg">
<path id="Vector" d="M0.999687 15.995C0.999687 18.9441 1.84942 21.6932 3.29897 23.9925H28.641C30.0906 21.6932 30.9403 18.9441 30.9403 15.995C30.9403 13.0459 30.0906 10.2968 28.641 7.9975H3.29897C1.84942 10.2968 0.999687 13.0459 0.999687 15.995Z" fill="var(--fill-0, #FFCE31)"/>
<path id="Vector_2" d="M28.691 7.9975C26.0419 3.79881 21.3433 0.999687 15.995 0.999687C10.6467 0.999687 5.94814 3.79881 3.29897 7.9975H28.691ZM3.29897 23.9925C5.94814 28.1912 10.6467 30.9903 15.995 30.9903C21.3433 30.9903 26.0419 28.1912 28.691 23.9925H3.29897Z" fill="var(--fill-0, #ED4C5C)"/>
<path id="Vector_3" d="M4.59856 14.3455H6.19806V15.2452H4.59856V14.3455ZM4.59856 20.9435H6.24805V21.7932H4.59856V20.9435Z" fill="var(--fill-0, #C8B100)"/>
<path id="Vector_4" d="M4.44861 19.5439C4.29866 19.6439 4.19869 19.7438 4.19869 19.7938C4.19869 19.8438 4.24867 19.8938 4.34864 19.9438C4.44861 19.9938 4.54858 20.0937 4.49859 20.1937C4.59856 20.0937 4.64855 19.9937 4.64855 19.8938C4.64855 19.7438 4.54858 19.5939 4.44861 19.5439Z" fill="var(--fill-0, #ED4C5C)"/>
<path id="Vector_5" d="M4.84848 15.2452H5.99813V20.9435H4.84848V15.2452Z" fill="var(--fill-0, white)"/>
<g id="Group">
<path id="Vector_6" d="M7.19775 17.3446C6.94783 17.2446 6.49797 17.1446 5.99813 17.1446C5.84817 17.1446 5.64823 17.1446 5.4483 17.1946C4.74852 17.2946 4.19869 17.5945 4.24867 17.7944L3.99875 17.2446C3.94877 16.9947 4.54858 16.6948 5.29834 16.5448C5.54827 16.4948 5.79819 16.4948 5.99813 16.4948C6.49797 16.4948 6.94783 16.5448 7.19775 16.6448V17.3446Z" fill="var(--fill-0, #ED4C5C)"/>
<path id="Vector_7" d="M4.84848 18.0943C4.54858 18.0943 4.29866 17.9944 4.29866 17.8444C4.29866 17.7445 4.39862 17.5945 4.59856 17.4945H4.89847L4.84848 18.0943ZM5.99813 17.6445C6.19806 17.6945 6.34802 17.7445 6.44798 17.7944C6.49797 17.8444 6.29803 18.0444 5.99813 18.1943V17.6445Z" fill="var(--fill-0, #ED4C5C)"/>
<path id="Vector_8" d="M4.09872 19.194C4.04873 19.094 4.39862 18.8941 4.84848 18.7441C5.04842 18.6942 5.19837 18.5942 5.4483 18.4942C6.04811 18.2443 6.54795 17.8944 6.44798 17.7944L6.54795 18.3943C6.59794 18.4942 6.19806 18.7941 5.59825 19.094C5.39831 19.194 5.04842 19.344 4.84848 19.3939C4.49859 19.4939 4.19869 19.6938 4.19869 19.7438L4.09872 19.194Z" fill="var(--fill-0, #ED4C5C)"/>
</g>
<path id="Vector_9" d="M15.3452 14.3455H16.9447V15.2452H15.3452V14.3455ZM15.2952 20.9435H16.9447V21.7932H15.2952V20.9435Z" fill="var(--fill-0, #C8B100)"/>
<path id="Vector_10" d="M17.0947 19.5439C17.2446 19.6439 17.3446 19.7438 17.3446 19.7938C17.3446 19.8438 17.2946 19.8938 17.1946 19.9438C17.0947 20.0437 16.9947 20.1937 17.0447 20.2437C16.9447 20.1437 16.8947 20.0437 16.8947 19.9438C16.8947 19.7438 16.9947 19.5939 17.0947 19.5439Z" fill="var(--fill-0, #ED4C5C)"/>
<path id="Vector_11" d="M15.5451 15.2452H16.6948V20.9435H15.5451V15.2452Z" fill="var(--fill-0, white)"/>
<g id="Group_2">
<path id="Vector_12" d="M14.3455 17.3446C14.5954 17.2446 15.0453 17.1446 15.5451 17.1446C15.6951 17.1446 15.895 17.1446 16.095 17.1946C16.7948 17.2946 17.3446 17.5945 17.2946 17.7944L17.5445 17.1946C17.5945 16.9447 16.9947 16.6448 16.2449 16.4948H15.5451C15.0453 16.4948 14.5954 16.5448 14.3455 16.6448V17.3446Z" fill="var(--fill-0, #ED4C5C)"/>
<path id="Vector_13" d="M16.6948 18.0943C16.9947 18.0943 17.2446 17.9944 17.2446 17.8444C17.2446 17.7445 17.1446 17.5945 16.9447 17.4945H16.6448L16.6948 18.0943ZM15.5451 17.6445C15.3452 17.6945 15.1953 17.7445 15.0953 17.7944C15.0453 17.8444 15.2452 18.0444 15.5451 18.1943V17.6445Z" fill="var(--fill-0, #ED4C5C)"/>
<path id="Vector_14" d="M17.4445 19.194C17.4945 19.094 17.1446 18.8941 16.6948 18.7441C16.4948 18.6942 16.3449 18.5942 16.095 18.4942C15.4952 18.2443 14.9953 17.8944 15.0953 17.7944L14.9953 18.3942C14.9453 18.4942 15.3452 18.7941 15.945 19.094C16.145 19.194 16.4948 19.344 16.6948 19.3939C17.0447 19.4939 17.3446 19.7438 17.2946 19.7938L17.4445 19.194ZM10.7466 11.1465C11.6963 11.1465 13.6457 11.3465 14.3455 12.0462C13.5958 13.8457 12.3961 13.0959 10.7466 13.0959C9.14714 13.0959 7.89753 13.8457 7.14777 12.0462C7.84755 11.3465 9.74695 11.1465 10.7466 11.1465Z" fill="var(--fill-0, #ED4C5C)"/>
</g>
<path id="Vector_15" d="M13.1959 13.1459C12.5961 12.796 11.6963 12.746 10.7466 12.746C9.79694 12.746 8.89722 12.846 8.29741 13.1459L8.49734 13.9956C9.04717 14.1456 9.84692 14.2455 10.7466 14.2455C11.6464 14.2455 12.3961 14.1456 12.9959 13.9956L13.1959 13.1459ZM14.0456 10.9966C13.8457 10.8466 13.4458 10.6967 13.0959 10.6967C12.946 10.6967 12.796 10.6967 12.646 10.7466C12.646 10.7466 12.3461 10.3468 11.6464 10.3468C11.3964 10.3468 11.1965 10.3967 10.9966 10.4967V10.4467C10.9466 10.3468 10.8466 10.2468 10.7466 10.2468C10.6467 10.2468 10.4967 10.3967 10.4967 10.4967V10.5467C10.2968 10.4467 10.0968 10.3967 9.84692 10.3967C9.14714 10.3967 8.84723 10.8466 8.84723 10.7966C8.69728 10.7466 8.54733 10.7466 8.39737 10.7466C6.09809 10.7466 7.24773 12.2962 7.24773 12.2962L7.49766 11.9962C6.94783 11.2965 7.44767 10.8966 8.44736 10.8966C8.59731 10.8966 8.69728 10.8966 8.79725 10.9466C8.44736 11.4464 9.09716 11.8963 9.09716 11.8963L9.24711 11.6464C8.89722 11.3964 8.84723 10.5467 9.84692 10.5467C10.0968 10.5467 10.2968 10.5967 10.4967 10.7466C10.4967 10.7966 10.4467 11.4964 10.3967 11.5964L10.7966 11.9463L11.1965 11.5964C11.1465 11.4464 11.0965 10.7966 11.0965 10.7466C11.2465 10.6467 11.4964 10.5467 11.7463 10.5467C12.796 10.5467 12.796 11.3964 12.3461 11.6464L12.4961 11.8963C12.4961 11.8963 13.0459 11.4464 12.796 10.9466C12.896 10.9466 13.0459 10.8966 13.1459 10.8966C14.3455 10.8966 14.3955 11.7963 14.0956 11.9962L14.2955 12.2962C14.1956 12.2962 14.7454 11.5964 14.0456 10.9966Z" fill="var(--fill-0, #C8B100)"/>
<path id="Vector_16" d="M10.4467 10.0469C10.4467 9.89691 10.5967 9.74695 10.7466 9.74695C10.9466 9.74695 11.0465 9.89691 11.0465 10.0469C11.0465 10.1968 10.8966 10.3468 10.7466 10.3468C10.5967 10.3468 10.4467 10.1968 10.4467 10.0469Z" fill="var(--fill-0, #005BBF)"/>
<path id="Vector_17" d="M10.6467 9.19712V9.34708H10.4967V9.49703H10.6467V9.99687H10.4467V10.1468H11.0465L11.0965 10.0469L11.0465 9.99687H10.8466V9.49703H10.9966V9.34708H10.8466V9.19712H10.6467Z" fill="var(--fill-0, #C8B100)"/>
<path id="Vector_18" d="M10.7466 14.1456C9.94689 14.1456 9.24711 14.0456 8.69728 13.8957C9.24711 13.7457 9.94689 13.6457 10.7466 13.6457C11.5464 13.6457 12.2462 13.7457 12.796 13.8957C12.2962 14.0456 11.5464 14.1456 10.7466 14.1456Z" fill="var(--fill-0, #ED4C5C)"/>
<path id="Vector_19" d="M10.7966 22.7929C9.84692 22.7929 8.9472 22.543 8.14745 22.1931C7.54764 21.8932 7.19775 21.3433 7.19775 20.6935V18.2943H14.3955V20.6935C14.3955 21.3433 13.9956 21.9431 13.4458 22.1931C12.646 22.5929 11.7463 22.7929 10.7966 22.7929ZM10.7466 14.2955H14.3455V18.2943H10.7466V14.2955Z" fill="var(--fill-0, white)"/>
<path id="Vector_20" d="M10.7966 20.6935C10.7966 21.6432 9.99687 22.393 8.99719 22.393C7.9975 22.393 7.19775 21.6432 7.19775 20.6935V18.2943H10.7966V20.6935Z" fill="var(--fill-0, #ED4C5C)"/>
<path id="Vector_21" d="M7.94752 22.0931C8.04748 22.1431 8.19744 22.243 8.39737 22.293V18.1943H7.9975L7.94752 22.0931ZM7.14777 20.6435C7.14777 21.1434 7.3477 21.5433 7.54764 21.7432V18.1943H7.14777V20.6435Z" fill="var(--fill-0, #C8B100)"/>
<path id="Vector_22" d="M8.74727 22.393H9.14714V18.1943H8.74727V22.393Z" fill="var(--fill-0, #C7B500)"/>
<path id="Vector_23" d="M9.54702 22.293C9.69697 22.243 9.89691 22.1431 9.99688 22.0931V18.1943H9.597L9.54702 22.293Z" fill="var(--fill-0, #C8B100)"/>
<path id="Vector_24" d="M7.14777 14.2955H10.7466V18.2943H7.14777V14.2955Z" fill="var(--fill-0, #ED4C5C)"/>
<path id="Vector_25" d="M10.3967 21.7432C10.5967 21.5933 10.7466 21.2434 10.7966 20.8435V18.2443H10.3967V21.7432Z" fill="var(--fill-0, #C8B100)"/>
<path id="Vector_26" d="M14.3955 18.2943V20.6935C14.3955 21.6432 13.5958 22.393 12.5961 22.393C11.5964 22.393 10.7966 21.6432 10.7966 20.6935V18.2943H14.3955ZM13.0959 14.9953C13.2459 15.2952 13.2459 16.045 12.796 15.895C12.896 15.945 12.946 16.2949 13.0959 16.4948C13.3458 16.7948 13.6457 16.5448 13.5958 16.1949C13.4958 15.6451 13.5458 15.2952 13.6457 14.7454C13.6457 14.7954 13.8957 14.7954 13.9956 14.6954C13.9456 14.8454 13.8957 15.0453 13.9956 15.0453C13.8957 15.1953 13.6457 15.4452 13.5958 15.5951C13.5458 15.945 14.0956 16.5948 13.4958 16.7448C13.0959 16.8447 13.3458 17.1446 13.4958 17.2946C13.4958 17.2946 13.2958 17.9444 13.3958 17.8944C12.9959 18.0444 13.0959 17.6945 13.0959 17.6945C13.2958 17.0947 12.746 17.0447 12.796 16.9447C12.2962 16.8947 12.846 17.3946 12.3961 17.3946C12.2962 17.3946 12.0962 17.4945 12.0962 17.4945C11.5464 17.4445 11.8463 16.9447 12.0462 16.9947C12.1962 17.0447 12.3461 17.2946 12.3461 16.9447C12.3461 16.9447 12.0962 16.5448 12.746 16.5448C12.4961 16.5448 12.3461 16.3449 12.2462 16.095C12.1462 16.145 11.9962 16.3949 11.4464 16.4449C11.4464 16.4449 11.2965 15.895 11.4464 15.995C11.6464 16.095 11.7463 16.095 11.9463 15.895C11.8463 15.7451 11.2465 15.5451 11.3465 15.1953C11.3465 15.0953 11.6464 14.9453 11.6464 14.9453C11.5964 15.1953 11.7463 15.4452 12.0462 15.4452C12.4461 15.4952 12.2962 15.3452 12.3461 15.2452C12.3961 15.1453 12.696 15.2952 12.5961 15.0453C12.5961 14.9953 12.2462 14.9453 12.3461 14.7954C12.5461 14.5455 12.846 14.7454 13.0959 14.9953ZM10.7966 22.293L10.6967 22.0431L10.7966 21.7432L10.8966 22.0431L10.7966 22.293Z" fill="var(--fill-0, #ED4C5C)"/>
<path id="Vector_27" d="M8.24742 15.1453V15.3952H8.34739V15.5951H8.09747V16.095H8.24742V17.1946H7.94752V17.7445H9.99688V17.1946H9.74695V16.095H9.84692V15.5951H9.597V15.3952H9.74695V15.1453H9.24711V15.3952H9.34708V15.5951H9.09716V14.9953H9.24711V14.7454H8.69728V14.9953H8.84723V15.5951H8.59731V15.3952H8.69728V15.1453H8.24742ZM13.8957 21.2933V18.7941H11.2965V21.2933L12.4961 21.8432H12.646L13.8957 21.2933ZM12.4961 18.9941V19.8438L11.6464 18.9941H12.4961ZM11.4464 19.044L12.4461 20.0437L11.4464 21.0434V19.044ZM11.5464 21.2434L12.4961 20.2937V21.6932L11.5464 21.2434ZM12.646 21.6432V20.2437L13.5958 21.1934L12.646 21.6432ZM13.6957 21.0434L12.696 20.0437L13.6957 19.044V21.0434ZM12.646 18.9941H13.4958L12.646 19.8438V18.9941Z" fill="var(--fill-0, #C8B100)"/>
<path id="Vector_28" d="M9.597 18.2443C9.597 17.4945 10.0968 16.9447 10.7466 16.9447C11.3964 16.9447 11.8963 17.5445 11.8963 18.2443C11.8963 18.9441 11.3964 19.5439 10.7466 19.5439C10.0968 19.5439 9.597 18.9941 9.597 18.2443Z" fill="var(--fill-0, #ED4C5C)"/>
<path id="Vector_29" d="M9.94689 18.2443C9.94689 17.6945 10.2968 17.2946 10.7466 17.2946C11.1965 17.2946 11.5464 17.7445 11.5464 18.2443C11.5464 18.7941 11.1965 19.194 10.7466 19.194C10.3468 19.244 9.94689 18.7941 9.94689 18.2443Z" fill="var(--fill-0, #005BBF)"/>
<path id="Vector_30" d="M10.3967 17.5945L10.1968 18.1443L10.3468 18.1943L10.2468 18.3942H10.5467L10.4467 18.1943L10.5967 18.1443L10.3967 17.5945ZM11.1465 17.5945L10.9466 18.1443L11.0965 18.1943L10.9966 18.3942H11.2965L11.2465 18.1943L11.3964 18.1443L11.1465 17.5945ZM10.7966 18.2443L10.5467 18.7941L10.6967 18.8441L10.6467 19.044H10.8966L10.8466 18.8441L10.9966 18.7941L10.7966 18.2443Z" fill="var(--fill-0, #C8B100)"/>
</g>
</svg>
