<svg preserveAspectRatio="none" width="100%" height="100%" overflow="visible" style="display: block;" viewBox="0 0 388.99 36.9842" fill="none" xmlns="http://www.w3.org/2000/svg">
<g id="SVG">
<path id="Vector" d="M58.3955 4.16491C58.3955 2.14926 56.7526 0.49979 54.7392 0.49979H4.23415C2.22071 0.49979 0.577799 2.14926 0.577799 4.16491V32.6529C0.577799 34.6686 2.22071 36.318 4.23415 36.318H54.7392C56.7526 36.318 58.3955 34.6686 58.3955 32.6529V4.16491Z" fill="var(--fill-0, #006FCF)"/>
<path id="Vector_2" d="M34.2413 30.9686V17.641L57.8966 17.6616V21.3429L55.1631 24.274L57.8966 27.2288V30.9876H53.5311L51.211 28.4205L48.9067 30.9971L34.2413 30.9654V30.9686Z" fill="var(--fill-0, white)"/>
<path id="Vector_3" d="M35.8207 29.5063V19.1081H44.6149V21.5027H38.6679V23.1297H44.4729V25.4848H38.6679V27.0832H44.6149V29.5063H35.8207Z" fill="var(--fill-0, #006FCF)"/>
<path id="Vector_4" d="M44.5707 29.5062L49.4365 24.3008L44.5707 19.1065H48.3365L51.31 22.4032L54.2929 19.1081H57.8962V19.1889L53.1345 24.3008L57.8962 29.3607V29.5078H54.255L51.2295 26.1795L48.2339 29.5094H44.5707V29.5062Z" fill="var(--fill-0, #006FCF)"/>
<path id="Vector_5" d="M35.3429 5.81054H41.0468L43.0497 10.3702V5.81054H50.0888L51.3041 9.22752L52.5209 5.81054H57.8965V19.1381H29.4875L35.3429 5.81054Z" fill="var(--fill-0, white)"/>
<path id="Vector_6" d="M36.4247 7.25866L31.8224 17.6505H34.979L35.847 15.5692H40.5503L41.4184 17.6505H44.6539L40.0705 7.25866H36.4247ZM36.8193 13.2364L38.2002 9.92861L39.5781 13.2364H36.8193Z" fill="var(--fill-0, #006FCF)"/>
<path id="Vector_7" d="M44.608 17.6491V7.25573L49.0447 7.27155L51.33 13.6607L53.6279 7.25731H57.8956V17.6476L55.1494 17.6728V10.5351L52.5547 17.6476H50.0452L47.4 10.5113V17.6491H44.6096H44.608Z" fill="var(--fill-0, #006FCF)"/>
<path id="Vector_8" d="M125.211 4.16491C125.211 2.14926 123.568 0.499784 121.554 0.499784H71.0493C69.036 0.499784 67.3931 2.14926 67.3931 4.16491V32.6529C67.3931 34.6686 69.036 36.318 71.0493 36.318H121.554C123.568 36.318 125.211 34.6686 125.211 32.6529V4.16491Z" fill="var(--fill-0, white)"/>
<path id="Vector_9" d="M82.7161 12.1865C82.2241 12.7605 81.4369 13.2132 80.6498 13.1485C80.5514 12.3724 80.9367 11.5479 81.3877 11.0386C81.8797 10.4484 82.7407 10.0281 83.4377 9.99574C83.5196 10.8042 83.1999 11.5964 82.7161 12.1865ZM83.4295 13.3021C82.2898 13.2375 81.314 13.9408 80.7728 13.9408C80.2234 13.9408 79.3952 13.3345 78.4933 13.3506C77.3208 13.3668 76.2301 14.0216 75.6316 15.0645C74.4016 17.1502 75.3118 20.2383 76.5007 21.936C77.083 22.7767 77.7799 23.6984 78.6983 23.666C79.5674 23.6337 79.9118 23.1082 80.9613 23.1082C82.0191 23.1082 82.3226 23.666 83.2409 23.6498C84.1921 23.6337 84.7906 22.809 85.3728 21.9683C86.037 21.0144 86.3076 20.0847 86.324 20.0362C86.3076 20.02 84.4872 19.3329 84.4708 17.2634C84.4545 15.5334 85.9057 14.7087 85.9714 14.6603C85.1514 13.4639 83.8723 13.3345 83.4295 13.3021ZM90.0138 10.9577V23.5609H91.9982V19.252H94.745C97.2542 19.252 99.017 17.5543 99.017 15.0968C99.017 12.6392 97.2869 10.9577 94.8106 10.9577H90.0138ZM91.9982 12.6069H94.2858C96.0078 12.6069 96.9918 13.5124 96.9918 15.1049C96.9918 16.6975 96.0078 17.611 94.2776 17.611H91.9982V12.6069ZM102.641 23.6579C103.888 23.6579 105.043 23.0354 105.568 22.0492H105.609V23.5609H107.446V17.2877C107.446 15.4687 105.97 14.2965 103.699 14.2965C101.592 14.2965 100.034 15.4848 99.9764 17.1178H101.764C101.912 16.3418 102.641 15.8325 103.642 15.8325C104.855 15.8325 105.536 16.3902 105.536 17.417V18.1122L103.059 18.2578C100.755 18.3952 99.509 19.3248 99.509 20.9416C99.509 22.5746 100.796 23.6579 102.641 23.6579ZM103.174 22.1623C102.117 22.1623 101.444 21.6611 101.444 20.8931C101.444 20.1009 102.092 19.6401 103.33 19.5673L105.536 19.43V20.1414C105.536 21.3216 104.519 22.1623 103.174 22.1623ZM109.898 26.9886C111.833 26.9886 112.743 26.261 113.539 24.054L117.023 14.4178H115.006L112.669 21.8632H112.628L110.291 14.4178H108.217L111.579 23.5932L111.399 24.1511C111.095 25.0969 110.603 25.4607 109.725 25.4607C109.57 25.4607 109.267 25.4445 109.144 25.4283V26.9401C109.259 26.9724 109.75 26.9886 109.898 26.9886Z" fill="var(--fill-0, black)"/>
<path id="Vector_10" d="M190.401 4.08918C190.401 2.11743 188.801 0.499784 186.835 0.499784H137.772C135.806 0.499784 134.207 2.11743 134.207 4.08918V31.8956C134.207 33.8674 135.806 35.485 137.772 35.485H186.835C188.801 35.485 190.401 33.8674 190.401 31.8956V4.08918Z" fill="var(--fill-0, white)"/>
<path id="Vector_11" d="M151.571 17.992V23.7078C151.571 24.1712 151.264 24.1712 150.805 24.0167C147.891 22.7809 146.205 18.9189 147.278 15.6748C147.891 13.9755 149.118 12.5852 150.805 11.9672C151.417 11.6582 151.571 11.8128 151.571 12.2762V17.992ZM154.637 17.992V12.2762C154.637 11.8128 154.637 11.8128 155.098 11.9672C158.317 13.2031 160.004 17.0651 158.777 20.3092C158.164 22.0085 156.937 23.3988 155.251 24.0167C154.637 24.3256 154.637 24.1712 154.637 23.7078V17.992ZM165.676 7.17834H153.105C158.93 7.17834 163.53 11.9672 163.53 17.992C163.53 24.0167 158.93 28.8056 153.105 28.8056H165.676C171.503 28.8056 176.102 24.0167 176.102 17.992C176.102 11.9672 171.503 7.17834 165.676 7.17834Z" fill="var(--fill-0, #3086C8)"/>
<path id="Vector_12" d="M256.178 4.08906C256.178 2.11236 254.558 0.499784 252.578 0.499784H202.994C201.015 0.499784 199.395 2.11236 199.395 4.08906V31.8944C199.395 33.8712 201.015 35.4837 202.994 35.4837H252.578C254.558 35.4837 256.178 33.8712 256.178 31.8944V4.08906Z" fill="var(--fill-0, white)"/>
<path id="Vector_13" d="M203.878 10.5152H201.445V19.0113H203.878C205.164 19.0113 206.094 18.7023 206.915 18.0381C207.891 17.2348 208.464 16.0299 208.464 14.7787C208.449 12.2608 206.574 10.5152 203.878 10.5152ZM205.83 16.9104C205.303 17.3738 204.637 17.5901 203.552 17.5901H203.103V11.9672H203.552C204.622 11.9672 205.272 12.1526 205.83 12.6469C206.404 13.1567 206.745 13.9446 206.745 14.7632C206.745 15.582 206.404 16.4006 205.83 16.9104ZM209.224 10.5152H210.882V19.0113H209.224V10.5152ZM214.941 13.7746C213.95 13.4039 213.656 13.1567 213.656 12.7087C213.656 12.168 214.183 11.7664 214.895 11.7664C215.391 11.7664 215.809 11.9672 216.228 12.4616L217.095 11.3339C216.383 10.716 215.53 10.3916 214.585 10.3916C213.082 10.3916 211.92 11.442 211.92 12.8323C211.92 14.0063 212.462 14.6088 214.012 15.1648C214.662 15.3965 214.988 15.5511 215.158 15.6437C215.484 15.8599 215.654 16.1689 215.654 16.5243C215.654 17.2194 215.112 17.7292 214.369 17.7292C213.578 17.7292 212.942 17.3275 212.555 16.6014L211.486 17.6365C212.245 18.7641 213.175 19.2584 214.431 19.2584C216.15 19.2584 217.374 18.1153 217.374 16.4625C217.405 15.0876 216.832 14.4697 214.941 13.7746ZM217.917 14.7787C217.917 17.2811 219.884 19.2121 222.41 19.2121C223.123 19.2121 223.743 19.0731 224.486 18.7177V16.7714C223.821 17.4356 223.232 17.6983 222.488 17.6983C220.814 17.6983 219.621 16.4934 219.621 14.7632C219.621 13.1258 220.845 11.8436 222.41 11.8436C223.201 11.8436 223.805 12.1217 224.486 12.8014V10.8551C223.759 10.4843 223.154 10.3298 222.441 10.3298C219.946 10.3298 217.917 12.307 217.917 14.7787ZM237.689 16.2307L235.411 10.5152H233.597L237.208 19.2275H238.107L241.779 10.5152H239.982L237.689 16.2307ZM242.539 19.0113H247.249V17.5746H244.197V15.2884H247.141V13.8518H244.197V11.9672H247.249V10.5152H242.539V19.0113ZM253.835 13.0331C253.835 11.442 252.734 10.5306 250.813 10.5306H248.349V19.0267H250.008V15.6129H250.224L252.517 19.0267H254.563L251.882 15.4429C253.137 15.1803 253.835 14.3307 253.835 13.0331ZM250.487 14.4388H250.008V11.8591H250.518C251.557 11.8591 252.115 12.2917 252.115 13.1258C252.115 13.9754 251.557 14.4388 250.487 14.4388Z" fill="var(--fill-0, #231F20)"/>
<path id="Vector_14" d="M229.584 19.3212C230.788 19.3212 231.944 18.8442 232.796 17.995C233.647 17.1459 234.126 15.9943 234.126 14.7935C234.126 13.5927 233.647 12.4411 232.796 11.5919C231.944 10.7429 230.788 10.2659 229.584 10.2659C228.379 10.2659 227.224 10.7429 226.372 11.5919C225.521 12.4411 225.043 13.5927 225.043 14.7935C225.043 15.9943 225.521 17.1459 226.372 17.995C227.224 18.8442 228.379 19.3212 229.584 19.3212Z" fill="url(#paint0_linear_0_119)"/>
<path id="Vector_15" opacity="0.65" d="M229.584 19.3212C230.788 19.3212 231.944 18.8442 232.796 17.995C233.647 17.1459 234.126 15.9943 234.126 14.7935C234.126 13.5927 233.647 12.4411 232.796 11.5919C231.944 10.7429 230.788 10.2659 229.584 10.2659C228.379 10.2659 227.224 10.7429 226.372 11.5919C225.521 12.4411 225.043 13.5927 225.043 14.7935C225.043 15.9943 225.521 17.1459 226.372 17.995C227.224 18.8442 228.379 19.3212 229.584 19.3212Z" fill="url(#paint1_linear_0_119)"/>
<path id="Vector_16" d="M255.01 11.0514C255.01 10.8969 254.901 10.8196 254.731 10.8196H254.483V11.5614H254.669V11.2678L254.886 11.5614H255.103L254.855 11.2523C254.948 11.2369 255.01 11.1596 255.01 11.0514ZM254.7 11.1596H254.669V10.9587H254.7C254.793 10.9587 254.839 10.9896 254.839 11.0514C254.839 11.1287 254.793 11.1596 254.7 11.1596Z" fill="var(--fill-0, #231F20)"/>
<path id="Vector_17" d="M254.764 10.5407C254.407 10.5407 254.113 10.8343 254.113 11.1897C254.113 11.5452 254.407 11.8388 254.764 11.8388C255.12 11.8388 255.415 11.5452 255.415 11.1897C255.415 10.8343 255.12 10.5407 254.764 10.5407ZM254.764 11.7306C254.485 11.7306 254.237 11.4988 254.237 11.1897C254.237 10.8961 254.469 10.6488 254.764 10.6488C255.043 10.6488 255.275 10.8961 255.275 11.1897C255.275 11.4834 255.043 11.7306 254.764 11.7306Z" fill="var(--fill-0, #231F20)"/>
<path id="Vector_18" d="M255.675 19.5129C255.675 19.5129 240.32 30.1547 212.251 34.985H252.574C253.392 34.9851 254.177 34.663 254.758 34.0889C255.337 33.5149 255.667 32.7354 255.673 31.9203L255.711 27.2552L255.675 19.5129Z" fill="var(--fill-0, #F48120)"/>
<path id="Vector_19" d="M321.992 4.08918C321.992 2.11241 320.371 0.499784 318.392 0.499784H268.806C266.827 0.499784 265.207 2.11241 265.207 4.08918V31.8956C265.207 33.8724 266.827 35.485 268.806 35.485H318.392C320.371 35.485 321.992 33.8724 321.992 31.8956V4.08918Z" fill="var(--fill-0, white)"/>
<path id="Vector_20" d="M287.398 28.8053C293.39 28.8053 298.246 23.964 298.246 17.9917C298.246 12.0195 293.39 7.17809 287.398 7.17809C281.408 7.17809 276.552 12.0195 276.552 17.9917C276.552 23.964 281.408 28.8053 287.398 28.8053Z" fill="var(--fill-0, #EB001B)"/>
<path id="Vector_21" d="M299.798 28.8053C305.789 28.8053 310.645 23.964 310.645 17.9917C310.645 12.0195 305.789 7.17809 299.798 7.17809C293.808 7.17809 288.951 12.0195 288.951 17.9917C288.951 23.964 293.808 28.8053 299.798 28.8053Z" fill="var(--fill-0, #F79E1B)"/>
<path id="Vector_22" d="M298.249 17.9919C298.249 14.2843 296.389 11.0403 293.6 9.18651C290.81 11.1947 288.951 14.4389 288.951 17.9919C288.951 21.545 290.81 24.9435 293.6 26.7972C296.389 24.9435 298.249 21.6994 298.249 17.9919Z" fill="var(--fill-0, #FF5F00)"/>
<path id="Vector_23" d="M387.772 4.08918C387.772 2.11241 386.152 0.499784 384.173 0.499784H334.586C332.607 0.499784 330.988 2.11241 330.988 4.08918V31.8956C330.988 33.8724 332.607 35.485 334.586 35.485H384.173C386.152 35.485 387.772 33.8724 387.772 31.8956V4.08918Z" fill="var(--fill-0, white)"/>
<path id="Vector_24" d="M373.792 15.0564H373.326C372.706 16.6012 372.241 17.3736 371.776 19.6908H374.721C374.256 17.3736 374.256 16.2923 373.792 15.0564ZM378.285 24.1707H375.651C375.496 24.1707 375.496 24.1707 375.341 24.0163L375.031 22.626L374.876 22.317H371.157C371.002 22.317 370.847 22.317 370.847 22.626L370.382 24.0163C370.382 24.1707 370.227 24.1707 370.227 24.1707H366.973L367.283 23.3984L371.776 12.8937C371.776 12.1213 372.241 11.8123 373.016 11.8123H375.341C375.496 11.8123 375.651 11.8123 375.651 12.1213L377.82 22.1625C377.975 22.7804 378.13 23.2438 378.13 23.8618C378.285 24.0163 378.285 24.0163 378.285 24.1707ZM357.521 23.7073L358.14 20.9267C358.295 20.9267 358.45 21.0811 358.45 21.0811C359.535 21.5445 360.619 21.8535 361.705 21.6991C362.015 21.6991 362.479 21.5445 362.789 21.3901C363.564 21.0811 363.564 20.3088 362.944 19.6908C362.634 19.3819 362.17 19.2274 361.705 18.9185C361.085 18.6095 360.464 18.3005 359.999 17.8371C358.14 16.2923 358.76 14.1296 359.845 13.0481C360.775 12.4303 361.24 11.8123 362.479 11.8123C364.339 11.8123 366.353 11.8123 367.283 12.1213H367.438C367.283 13.0481 367.127 13.8206 366.818 14.7474C366.043 14.4385 365.268 14.1296 364.494 14.1296C364.029 14.1296 363.564 14.1296 363.099 14.284C362.789 14.284 362.634 14.4385 362.479 14.593C362.17 14.9019 362.17 15.3653 362.479 15.6743L363.254 16.2923C363.874 16.6012 364.494 16.9102 364.958 17.2192C365.733 17.6826 366.508 18.4549 366.663 19.3819C366.973 20.7722 366.508 22.008 365.268 22.935C364.494 23.5528 364.184 23.8618 363.099 23.8618C360.93 23.8618 359.225 24.0163 357.83 23.5528C357.675 23.8618 357.675 23.8618 357.521 23.7073ZM352.097 24.1707C352.252 23.0894 352.252 23.0894 352.407 22.626C353.181 19.2274 353.956 15.6743 354.577 12.2758C354.732 11.9668 354.732 11.8123 355.042 11.8123H357.83C357.521 13.6661 357.211 15.0564 356.746 16.7557C356.281 19.0729 355.816 21.3901 355.196 23.7073C355.196 24.0163 355.042 24.0163 354.732 24.0163M337.686 12.1213C337.686 11.9668 337.996 11.8123 338.151 11.8123H343.419C344.194 11.8123 344.814 12.2758 344.969 13.0481L346.363 19.8453C346.363 19.9998 346.363 19.9998 346.518 20.1542C346.518 19.9998 346.673 19.9998 346.673 19.9998L349.928 12.1213C349.773 11.9668 349.928 11.8123 350.083 11.8123H353.336C353.336 11.9668 353.336 11.9668 353.181 12.1213L348.378 23.3984C348.223 23.7073 348.223 23.8618 348.068 24.0163C347.914 24.1707 347.603 24.0163 347.293 24.0163H344.969C344.814 24.0163 344.659 24.0163 344.659 23.7073L342.18 14.1296C341.87 13.8206 341.405 13.3571 340.785 13.2027C339.855 12.7393 338.151 12.4303 337.841 12.4303L337.686 12.1213Z" fill="var(--fill-0, #142688)"/>
</g>
<defs>
<linearGradient id="paint0_linear_0_119" x1="231.904" y1="18.4175" x2="228.779" y2="13.5103" gradientUnits="userSpaceOnUse">
<stop stop-color="#F89F20"/>
<stop offset="0.25" stop-color="#F79A20"/>
<stop offset="0.533" stop-color="#F68D20"/>
<stop offset="0.62" stop-color="#F58720"/>
<stop offset="0.723" stop-color="#F48120"/>
<stop offset="1" stop-color="#F37521"/>
</linearGradient>
<linearGradient id="paint1_linear_0_119" x1="231.409" y1="18.3511" x2="226.845" y2="9.40174" gradientUnits="userSpaceOnUse">
<stop stop-color="#F58720"/>
<stop offset="0.359" stop-color="#E16F27"/>
<stop offset="0.703" stop-color="#D4602C"/>
<stop offset="0.982" stop-color="#D05B2E"/>
</linearGradient>
</defs>
</svg>
