<svg preserveAspectRatio="none" width="100%" height="100%" overflow="visible" style="display: block;" viewBox="0 0 24 24" fill="none" xmlns="http://www.w3.org/2000/svg">
<g id="SVG">
<path id="Vector" d="M18.1673 3.75967C17.2536 2.7199 16.7498 1.38356 16.7499 0H15.6455C15.7882 0.764781 16.0853 1.49252 16.5188 2.1389C16.9521 2.78526 17.5136 3.33672 18.1673 3.75967Z" fill="var(--fill-0, #E5E5F5)"/>
<path id="Vector_2" d="M7.71268 11.8076C6.87132 11.8119 6.07438 12.2037 5.41399 12.6846C4.75359 13.1655 4.28632 13.8362 4.08643 14.5901C3.88654 15.3441 3.96548 16.1381 4.3107 16.8458C4.65593 17.5536 5.55201 18.0703 6.29622 18.4324C5.88921 17.9139 5.34114 17.366 5.28768 16.7276C5.23422 16.0892 5.37307 15.4497 5.6889 14.8796C6.00472 14.3094 6.48525 13.831 7.07736 13.497C7.66949 13.163 8.35016 12.9864 9.04421 12.9869C9.4223 12.9906 9.79785 13.0444 10.1593 13.1468V8.92836C9.79012 8.87745 9.41748 8.8509 9.04421 8.84888H8.84145L8.67846 11.8719C8.31669 11.7825 8.08707 11.7982 7.71268 11.8076Z" fill="var(--fill-0, #E5E5F5)"/>
<path id="Vector_3" d="M21.2975 5.62288V8.82201C19.2353 8.81752 17.2268 8.16492 15.5565 6.95662V15.363C15.5523 17.3775 14.7483 19.308 13.3209 20.731C11.8935 22.1539 9.95926 22.9532 7.94271 22.9532C6.38304 22.9562 4.86087 22.4755 3.58635 21.5775C4.62562 22.6942 5.97747 23.4725 7.46581 23.8109C8.95414 24.1491 10.51 24.0318 11.9306 23.4742C13.3513 22.9165 14.5709 21.9445 15.4306 20.6845C16.2904 19.4245 16.7504 17.9352 16.7507 16.4103V8.03016C18.4266 9.23047 20.4378 9.8742 22.5 9.87036V5.75067C22.0958 5.74977 21.6929 5.70696 21.2975 5.62288Z" fill="var(--fill-0, #E5E5F5)"/>
<path id="Vector_4" d="M15.5567 15.3651V6.9588C17.2335 8.15999 19.3637 9.0471 21.4271 9.0417L21.3627 5.63277C20.1444 5.37594 18.9899 4.69657 18.1709 3.75967C17.5173 3.33672 16.9566 2.78526 16.5233 2.1389C16.0899 1.49252 15.7928 0.764781 15.65 0H12.6185V16.5572C12.589 17.2778 12.3356 17.9714 11.8934 18.5415C11.4512 19.1117 10.8422 19.53 10.151 19.7385C9.45984 19.947 8.72084 19.9353 8.03666 19.705C7.35248 19.4746 6.7571 19.0371 6.33324 18.4533C5.64762 18.0924 5.10239 17.5131 4.78422 16.8072C4.46604 16.1013 4.39317 15.3095 4.57721 14.5575C4.76124 13.8055 5.19161 13.1365 5.7999 12.6569C6.4082 12.1773 7.15952 11.9145 7.93443 11.9104C8.28272 11.9133 8.62872 11.967 8.96144 12.0699V8.86987C7.48875 8.89489 6.05517 9.3474 4.83545 10.1722C3.61574 10.9971 2.6626 12.1586 2.09223 13.5152C1.52186 14.8718 1.35891 16.3648 1.62323 17.8123C1.88756 19.2598 2.56775 20.5993 3.58088 21.6673C4.86758 22.5345 6.39083 22.9835 7.94271 22.9532C9.95927 22.9532 11.8935 22.1539 13.3209 20.731C14.7483 19.3084 15.552 17.3793 15.5567 15.3651Z" fill="var(--fill-0, #E5E5F5)"/>
</g>
</svg>
