<svg preserveAspectRatio="none" width="100%" height="100%" overflow="visible" style="display: block;" viewBox="0 0 23.6722 17.063" fill="none" xmlns="http://www.w3.org/2000/svg">
<g id="Group">
<path id="Vector" fill-rule="evenodd" clip-rule="evenodd" d="M8.61144 0.000829079C8.61144 0.000829079 5.88434 -0.107331 2.94217 2.14711C2.94217 2.14711 0 7.46042 0 14.0108C0 14.0108 1.6308 16.9514 6.10264 17.063C6.10264 17.063 6.75592 16.1622 7.41562 15.3696C4.90362 14.5787 3.9261 12.9968 3.9261 12.9968L4.76558 13.4464C4.92729 13.5155 5.08962 13.5858 5.25312 13.6566L5.25509 13.6574C7.57389 14.6616 10.1261 15.7668 14.4492 15.0282L14.517 15.0124C15.4719 14.7896 16.4284 14.5666 17.3834 14.124C17.5586 14.0308 17.7451 13.9376 17.9412 13.8396C18.4566 13.5822 19.0391 13.291 19.6611 12.8786C19.6611 12.8786 18.6819 14.4603 16.0656 15.2512C16.605 16.0388 17.3626 16.9412 17.3626 16.9412C21.0279 16.8582 22.857 14.8691 23.4522 14.2219C23.5834 14.0792 23.6546 14.0018 23.6722 14.0243C23.6722 7.48408 20.7124 2.16063 20.7124 2.16063C18.0671 0.124203 15.5952 0.032936 15.1282 0.0312427L14.8296 0.340522C18.2084 1.35451 19.844 2.93803 19.844 2.93803C14.942 0.396282 9.64673 0.25095 4.79769 2.25866C4.03525 2.60172 3.59866 2.82648 3.59866 2.82648C3.59866 2.82648 5.23106 1.13312 8.83133 0.228976L8.61144 0.000829079ZM15.4482 12.0907C16.5794 12.0907 17.5007 11.0511 17.5007 9.76882C17.5007 8.49538 16.5842 7.45578 15.4482 7.45578V7.46098C14.3216 7.46098 13.3988 8.49711 13.3956 9.77922C13.3956 11.0511 14.3168 12.0907 15.4482 12.0907ZM10.153 9.76882C10.153 11.0511 9.23181 12.0907 8.10056 12.0907C6.9693 12.0907 6.04806 11.0511 6.04806 9.77922C6.04806 8.49711 6.9693 7.46098 8.10056 7.46098L8.10692 7.45578C9.23818 7.45578 10.153 8.49538 10.153 9.76882Z" fill="var(--fill-0, #E5E5F5)"/>
<path id="Vector_2" d="M15.1378 0.0228027L15.1908 0.00252247H15.1571L15.1378 0.0228027Z" fill="var(--fill-0, #E5E5F5)"/>
</g>
</svg>
