<svg preserveAspectRatio="none" width="100%" height="100%" overflow="visible" style="display: block;" viewBox="0 0 20 20" fill="none" xmlns="http://www.w3.org/2000/svg">
<g id="SVG">
<path id="Vector" d="M6.76667 7.74167L10 10.975L13.2333 7.74167C13.3105 7.66451 13.4021 7.60332 13.5029 7.56156C13.6037 7.51981 13.7117 7.49832 13.8208 7.49832C13.9299 7.49832 14.038 7.51981 14.1388 7.56156C14.2396 7.60332 14.3312 7.66451 14.4083 7.74167C14.4855 7.81882 14.5467 7.91041 14.5884 8.01121C14.6302 8.11202 14.6517 8.22006 14.6517 8.32917C14.6517 8.43828 14.6302 8.54632 14.5884 8.64712C14.5467 8.74792 14.4855 8.83951 14.4083 8.91667L10.5833 12.7417C10.5062 12.8189 10.4147 12.8802 10.3139 12.922C10.213 12.9638 10.105 12.9854 9.99583 12.9854C9.88669 12.9854 9.77862 12.9638 9.67781 12.922C9.577 12.8802 9.48543 12.8189 9.40833 12.7417L5.58333 8.91667C5.50608 8.83957 5.44479 8.748 5.40297 8.64719C5.36115 8.54638 5.33963 8.43831 5.33963 8.32917C5.33963 8.22003 5.36115 8.11196 5.40297 8.01115C5.44479 7.91034 5.50608 7.81876 5.58333 7.74167C5.90833 7.425 6.44167 7.41667 6.76667 7.74167Z" fill="var(--fill-0, #809BB5)"/>
</g>
</svg>
