<svg preserveAspectRatio="none" width="100%" height="100%" overflow="visible" style="display: block;" viewBox="0 0 13.957 10" fill="none" xmlns="http://www.w3.org/2000/svg">
<g id="Group">
<path id="Vector" d="M9.12197 0.460866C9.14278 0.501255 9.16598 0.544213 9.19186 0.589768C9.36315 0.89139 9.60125 1.22267 9.85462 1.54024L9.8554 1.54121C10.4907 2.34037 11.2437 3.02965 12.0981 3.552C12.4282 3.75373 12.7793 3.94258 13.1162 4.07925C13.1661 4.0995 13.2148 4.11822 13.2622 4.13541C13.633 4.27002 13.957 4.60551 13.957 5C13.957 5.39449 13.633 5.72997 13.2621 5.86451C13.2147 5.88174 13.1659 5.90048 13.1159 5.92077C12.7789 6.05742 12.4279 6.24622 12.0985 6.44779C11.2437 6.97099 10.4904 7.66071 9.85487 8.45876C9.60156 8.77659 9.36335 9.10846 9.19197 9.41047C9.16616 9.45597 9.14299 9.49887 9.12222 9.5392C8.99765 9.78107 8.73645 10 8.46439 10C7.94747 10 7.53957 9.56975 7.74975 9.0975C7.81164 8.95844 7.88082 8.82646 7.94951 8.70542C8.17236 8.3127 8.46089 7.91573 8.73752 7.56861C9.28769 6.87774 9.92255 6.24818 10.6373 5.71429H0.714286C0.319797 5.71429 0 5.39449 0 5C0 4.60551 0.319797 4.28571 0.714286 4.28571H10.6368C9.92226 3.75215 9.28755 3.12247 8.73752 2.43068C8.46101 2.08408 8.17252 1.6877 7.94964 1.29523C7.88079 1.17401 7.81148 1.04183 7.74952 0.902565C7.53939 0.430283 7.94747 0 8.46439 0C8.73645 0 8.99738 0.219008 9.12197 0.460866Z" fill="var(--fill-0, white)"/>
</g>
</svg>
