<svg preserveAspectRatio="none" width="100%" height="100%" overflow="visible" style="display: block;" viewBox="0 0 21 14" fill="none" xmlns="http://www.w3.org/2000/svg">
<g id="search-svgrepo-com 1">
<path id="Vector" fill-rule="evenodd" clip-rule="evenodd" d="M5 6.29999C5 5.37174 5.39509 4.4815 6.09835 3.82512C6.80161 3.16874 7.75544 2.79999 8.75 2.79999C9.74456 2.79999 10.6984 3.16874 11.4016 3.82512C12.1049 4.4815 12.5 5.37174 12.5 6.29999C12.5 7.22825 12.1049 8.11849 11.4016 8.77487C10.6984 9.43125 9.74456 9.79999 8.75 9.79999C7.75544 9.79999 6.80161 9.43125 6.09835 8.77487C5.39509 8.11849 5 7.22825 5 6.29999ZM8.75 1.39999C7.91813 1.39999 7.09816 1.58449 6.35768 1.93829C5.61719 2.29209 4.97738 2.80505 4.49098 3.43491C4.00457 4.06477 3.6855 4.7935 3.56005 5.56103C3.43459 6.32857 3.50635 7.11294 3.76941 7.84951C4.03247 8.58608 4.47931 9.25377 5.07308 9.79754C5.66686 10.3413 6.39059 10.7456 7.18462 10.9771C7.97865 11.2086 8.82026 11.2607 9.64009 11.1291C10.4599 10.9974 11.2345 10.6858 11.9 10.22C11.9213 10.2465 11.9446 10.2715 11.9697 10.2949L14.2197 12.3949C14.3612 12.5224 14.5507 12.593 14.7473 12.5914C14.9439 12.5898 15.1321 12.5162 15.2711 12.3864C15.4102 12.2566 15.489 12.081 15.4908 11.8975C15.4925 11.7139 15.4169 11.5371 15.2802 11.4051L13.0302 9.30509C13.0052 9.28165 12.9784 9.25989 12.95 9.23999C13.535 8.512 13.8912 7.64635 13.9788 6.74004C14.0663 5.83373 13.8818 4.92257 13.4457 4.10865C13.0097 3.29473 12.3395 2.61021 11.5101 2.1318C10.6807 1.6534 9.72499 1.39999 8.75 1.39999Z" fill="var(--fill-0, #5A5D5F)"/>
</g>
</svg>
