<svg preserveAspectRatio="none" width="100%" height="100%" overflow="visible" style="display: block;" viewBox="0 0 27 27" fill="none" xmlns="http://www.w3.org/2000/svg">
<g id="discord-svgrepo-com (2) 1">
<path id="Vector" d="M20.9137 6.62622C19.53 5.98497 18.0562 5.51247 16.5037 5.24247C16.3125 5.57997 16.0875 6.04122 15.9412 6.41247C14.2987 6.16497 12.6675 6.16497 11.0588 6.41247C10.9013 6.04122 10.6763 5.57997 10.485 5.24247C8.93251 5.51247 7.45876 5.98497 6.07501 6.62622C3.28501 10.8337 2.53126 14.94 2.90251 18.9788C4.75876 20.3625 6.54751 21.195 8.31376 21.7463C8.75251 21.15 9.13501 20.5088 9.47251 19.845C8.83126 19.6088 8.22376 19.305 7.65001 18.9563C7.80751 18.8438 7.95376 18.72 8.10001 18.6075C11.6212 20.25 15.435 20.25 18.9112 18.6075C19.0575 18.7313 19.2037 18.8438 19.3612 18.9563C18.7875 19.305 18.1687 19.5975 17.5387 19.845C17.8762 20.5088 18.2588 21.15 18.6975 21.7463C20.4637 21.195 22.2637 20.3625 24.1087 18.9788C24.5475 14.2875 23.355 10.2262 20.9362 6.62622H20.9137ZM9.94501 16.5038C8.88751 16.5038 8.02126 15.525 8.02126 14.3213C8.02126 13.1175 8.86501 12.1388 9.94501 12.1388C11.025 12.1388 11.88 13.1175 11.8688 14.3213C11.8688 15.5138 11.025 16.5038 9.94501 16.5038ZM17.0437 16.5038C15.9862 16.5038 15.12 15.525 15.12 14.3213C15.12 13.1175 15.9637 12.1388 17.0437 12.1388C18.1237 12.1388 18.9787 13.1175 18.9675 14.3213C18.9675 15.5138 18.1237 16.5038 17.0437 16.5038Z" fill="var(--fill-0, white)"/>
</g>
</svg>
