<svg preserveAspectRatio="none" width="100%" height="100%" overflow="visible" style="display: block;" viewBox="0 0 15.6318 11.2" fill="none" xmlns="http://www.w3.org/2000/svg">
<g id="Group">
<path id="Vector" d="M10.2166 0.516172C10.2399 0.561404 10.2659 0.609516 10.2949 0.66054C10.4868 0.998356 10.7534 1.36939 11.0372 1.72507L11.038 1.72616C11.7496 2.62121 12.5929 3.39321 13.5499 3.97824C13.9196 4.20418 14.3128 4.41569 14.6901 4.56876C14.746 4.59144 14.8005 4.6124 14.8536 4.63166C15.2689 4.78242 15.6318 5.15817 15.6318 5.6C15.6318 6.04183 15.2689 6.41756 14.8536 6.56825C14.8004 6.58755 14.7458 6.60854 14.6898 6.63126C14.3124 6.78431 13.9192 6.99576 13.5503 7.22153C12.5929 7.80754 11.7492 8.58002 11.0375 9.47378C10.7537 9.82978 10.4869 10.2015 10.295 10.5397C10.2661 10.5907 10.2401 10.6387 10.2168 10.6839C10.0774 10.9548 9.78484 11.2 9.48012 11.2C8.90116 11.2 8.44429 10.7181 8.67973 10.1892C8.74901 10.0335 8.82652 9.88562 8.90348 9.7501C9.15308 9.31026 9.4762 8.86562 9.78604 8.47682C10.4022 7.70306 11.1132 6.99796 11.9138 6.4H0.799997C0.358173 6.4 0 6.04183 0 5.6C0 5.15817 0.358173 4.8 0.799997 4.8H11.9132C11.1129 4.20241 10.402 3.49716 9.78604 2.72236C9.47636 2.33417 9.15324 1.89023 8.90356 1.45066C8.82644 1.31489 8.74884 1.16685 8.67948 1.01088C8.44412 0.481916 8.90116 0 9.48012 0C9.78484 0 10.0771 0.245289 10.2166 0.516172Z" fill="var(--fill-0, white)"/>
</g>
</svg>
