<svg width="1920" height="1000" viewBox="0 0 1920 1000" fill="none" xmlns="http://www.w3.org/2000/svg">
<path d="M40.6667 0L40.6666 998.421M200.667 0L200.667 998.421M360.667 0L360.667 998.421M1920 0.577867L0 0.57779M520.667 0L520.667 998.421M1920 111.514L0 111.514M680.667 0L680.667 998.421M1920 222.449L0 222.449M840.667 0V998.421M1920 333.385L0 333.385M1000.67 0V998.421M1920 444.321L0 444.321M1160.67 0V998.421M1920 555.257L0 555.257M1320.67 0V998.421M1920 666.193L0 666.193M1720.67 0V998.421M1920 943.532L0 943.532M1480.67 0V998.421M1920 777.128L0 777.128M1880.67 0V998.421M120.667 0L120.667 998.421M280.667 0L280.667 998.421M440.667 0L440.667 998.421M1920 56.0458L0 56.0457M600.667 0L600.667 998.421M1920 166.982L0 166.981M760.667 0V998.421M1920 277.917L0 277.917M920.667 0V998.421M1920 388.853L0 388.853M1080.67 0V998.421M1920 499.789L0 499.789M1240.67 0V998.421M1920 610.725L0 610.725M1640.67 0V998.421M1920 888.064L0 888.064M1400.67 0V998.421M1920 721.661L0 721.66M1800.67 0V998.421M1920 999L0 999M1560.67 0V998.421M1920 832.596L0 832.596" stroke="url(#paint0_radial_1_53)" stroke-opacity="0.28"/>
<defs>
<radialGradient id="paint0_radial_1_53" cx="0" cy="0" r="1" gradientUnits="userSpaceOnUse" gradientTransform="translate(960 499.21) rotate(90) scale(479.566 553.333)">
<stop stop-color="#FBFBFB" stop-opacity="0.4"/>
<stop offset="1" stop-opacity="0"/>
</radialGradient>
</defs>
</svg>
