<svg preserveAspectRatio="none" width="100%" height="100%" overflow="visible" style="display: block;" viewBox="0 0 27 28" fill="none" xmlns="http://www.w3.org/2000/svg">
<g id="Group">
<path id="Vector" d="M12.275 21.1558C11.9082 21.5375 11.3564 21.6525 10.8763 21.4474C10.3962 21.2429 10.0827 20.7565 10.0827 20.2178V7.78157C10.0827 7.24287 10.3962 6.75713 10.8763 6.55139C11.3564 6.34565 11.9088 6.4607 12.275 6.84296L17.9433 12.751C18.6059 13.4412 18.6059 14.557 17.9433 15.2478L12.275 21.1558Z" fill="var(--fill-0, white)"/>
<path id="Vector_2" d="M13.5 3.65217C19.0021 3.65217 23.4783 8.29409 23.4783 14C23.4783 19.7059 19.0021 24.3478 13.5 24.3478C7.99787 24.3478 3.52174 19.7059 3.52174 14C3.52174 8.29409 7.99787 3.65217 13.5 3.65217ZM13.5 0C6.04448 0 0 6.26774 0 14C0 21.7323 6.04448 28 13.5 28C20.9555 28 27 21.7323 27 14C27 6.26774 20.9555 0 13.5 0Z" fill="var(--fill-0, white)"/>
</g>
</svg>
